<svg width="281" height="38" viewBox="0 0 281 38" fill="none" xmlns="http://www.w3.org/2000/svg">
<path d="M10.5051 36.6393V4.04774C8.71157 9.0697 5.6369 11.6832 1.12738 12.5543V8.19854C5.07321 7.53236 7.68668 5.73881 9.58273 0.768086H15.2196V36.6393H10.5051ZM23.6233 36.6393V34.5895C23.6233 29.0038 26.3393 24.4431 33.2061 20.3947C40.739 15.9877 42.2763 13.8867 42.2763 10.4021C42.2763 7.07116 39.4066 4.20147 35.1533 4.20147C30.7976 4.20147 27.4667 7.2249 27.0055 12.5543H23.5208C23.8795 4.61143 29.1577 -0.000580884 36.127 -0.000580884C42.84 -0.000580884 47.452 4.50894 47.452 10.0433C47.452 15.0141 45.0948 18.2937 35.717 23.0082C30.0289 25.8779 28.3378 28.4914 28.3378 31.8223H48.4257V36.6393H23.6233ZM66.029 37.4079C58.2398 37.4079 52.8079 30.6949 52.8079 18.8574C52.8079 6.86619 58.2398 -0.000580884 66.1315 -0.000580884C73.9206 -0.000580884 79.3525 6.71245 79.3525 18.5499C79.3525 30.5924 73.9206 37.4079 66.029 37.4079ZM66.2339 34.077C71.3072 34.077 74.2281 29.7725 74.2281 18.9086C74.2281 7.89107 70.641 3.33031 65.9265 3.33031C60.8533 3.33031 57.9323 7.63485 57.9323 18.4987C57.9323 29.5163 61.5195 34.077 66.2339 34.077Z" fill="#F8F6F2"/>
<path d="M89.0601 9.61578V2.97313H90.1587V4.41663C90.4653 3.43301 91.2829 2.78152 92.2793 2.78152C93.2629 2.78152 94.0038 3.43301 94.2337 4.46773C94.5148 3.45856 95.3579 2.78152 96.3671 2.78152C97.5551 2.78152 98.3854 3.72682 98.3854 5.14477V9.61578H97.2357V5.33638C97.2357 4.35276 96.7247 3.76514 95.8305 3.76514C94.9236 3.76514 94.2976 4.56992 94.2976 5.89845V9.61578H93.1479V5.33638C93.1479 4.35276 92.637 3.76514 91.7428 3.76514C90.8358 3.76514 90.2098 4.56992 90.2098 5.89845V9.61578H89.0601ZM102.727 12.1068C100.645 12.1068 99.6489 11.4297 99.6489 10.51C99.6489 9.93513 100.083 9.47526 100.747 9.34752C100.224 9.11758 99.9171 8.67048 99.9171 8.19783C99.9171 7.55911 100.39 7.08646 101.156 6.97149C100.53 6.61381 100.147 5.88568 100.147 5.15754C100.147 3.79069 101.207 2.78152 102.817 2.78152C103.686 2.78152 103.941 2.97313 104.848 2.97313H106.138V3.89288H105.972C105.499 3.89288 105.231 3.80346 104.822 3.56075C105.231 3.99508 105.423 4.49328 105.423 5.08089C105.423 6.44775 104.337 7.44414 102.74 7.44414C102.127 7.44414 101.884 7.34195 101.488 7.34195C101.08 7.34195 100.824 7.57189 100.824 7.91679C100.824 8.27447 101.118 8.52996 101.731 8.52996H104.311C105.589 8.52996 106.292 9.11758 106.292 10.0501C106.292 11.2764 105.014 12.1068 102.727 12.1068ZM102.83 6.67768C103.724 6.67768 104.273 6.06452 104.273 5.15754C104.273 4.18669 103.698 3.54798 102.779 3.54798C101.859 3.54798 101.297 4.14837 101.297 5.08089C101.297 6.05174 101.884 6.67768 102.83 6.67768ZM102.689 11.2764C104.388 11.2764 105.155 10.8293 105.155 10.2545C105.155 9.88404 104.848 9.6541 104.018 9.6541H101.552C100.76 9.6541 100.364 9.94791 100.364 10.3439C100.364 10.8932 101.028 11.2764 102.689 11.2764ZM111.039 0.494914L107.641 9.61578H106.542L109.94 0.494914H111.039ZM114.387 9.80739C112.892 9.80739 111.73 8.45331 111.73 6.33278C111.73 4.0845 112.969 2.78152 114.412 2.78152C115.294 2.78152 116.086 3.29249 116.443 4.07172V0.673754H117.593V9.61578H116.494V8.37667C116.201 9.23255 115.396 9.80739 114.387 9.80739ZM114.821 8.91319C115.702 8.91319 116.443 8.13396 116.443 6.95872V5.70684C116.443 4.4805 115.754 3.67572 114.719 3.67572C113.646 3.67572 112.943 4.54437 112.943 6.25613C112.943 8.03176 113.735 8.91319 114.821 8.91319ZM119.561 9.61578V0.673754H120.711V9.61578H119.561Z" fill="#F8F6F2"/>
<path d="M178.043 14.1197L174.331 1.50873H176.097L178.745 11.039L179.142 12.4983H179.16L179.574 11.039L182.529 1.50873H183.573L186.654 11.003L187.105 12.4983H187.123L187.501 11.003L190.113 1.50873H191.572L187.861 14.1197H186.06L183.231 5.49019L182.871 4.21108H182.853L182.493 5.49019L179.844 14.1197H178.043ZM194.084 14.3719C192.481 14.3719 191.418 13.327 191.418 11.9578C191.418 10.5526 192.21 9.68784 194.354 9.16538C196.642 8.62492 197.057 8.21056 197.057 7.38184C197.057 6.55312 196.318 5.79646 195.057 5.79646C193.832 5.79646 192.913 6.5351 192.679 7.90429H191.598C191.85 5.77844 193.363 4.48131 195.435 4.48131C197.435 4.48131 198.786 5.74241 198.786 7.63405V12.138C198.786 12.8766 199.074 13.1829 199.813 13.2189V14.1197C199.615 14.2098 199.29 14.2638 198.948 14.2638C197.777 14.2638 197.165 13.4711 197.165 12.3542C196.696 13.6153 195.579 14.3719 194.084 14.3719ZM194.66 13.0748C196.12 13.0748 197.165 11.9938 197.165 10.4625V8.76904C196.768 9.34554 196.048 9.77792 194.859 10.1382C193.579 10.5166 193.111 11.057 193.111 11.7777C193.111 12.5163 193.688 13.0748 194.66 13.0748ZM201.19 14.1197V1.50873H202.812V9.30951L207.064 4.75155H208.739L205.172 8.3727L208.919 14.1197H206.955L204.037 9.5257L202.812 10.7688V14.1197H201.19ZM209.855 3.2022V1.50873H211.548V3.2022H209.855ZM209.891 14.1197V4.75155H211.512V14.1197H209.891ZM213.929 14.1197V4.75155H215.478V6.80533C215.928 5.41813 217.172 4.48131 218.649 4.48131C220.432 4.48131 221.675 5.81447 221.675 7.81421V14.1197H220.054V8.08445C220.054 6.69724 219.279 5.86852 217.892 5.86852C216.505 5.86852 215.55 7.00351 215.55 8.87713V14.1197H213.929ZM227.442 17.6327C224.506 17.6327 223.101 16.6779 223.101 15.3808C223.101 14.5701 223.713 13.9215 224.65 13.7414C223.911 13.4171 223.479 12.7865 223.479 12.12C223.479 11.2192 224.145 10.5526 225.226 10.3904C224.344 9.88601 223.803 8.85912 223.803 7.83223C223.803 5.90455 225.298 4.48131 227.568 4.48131C228.793 4.48131 229.154 4.75155 230.433 4.75155H232.252V6.04868H232.018C231.352 6.04868 230.973 5.92257 230.397 5.58027C230.973 6.1928 231.244 6.89541 231.244 7.72413C231.244 9.65181 229.712 11.057 227.46 11.057C226.596 11.057 226.253 10.9129 225.695 10.9129C225.118 10.9129 224.758 11.2372 224.758 11.7236C224.758 12.228 225.172 12.5884 226.037 12.5884H229.676C231.478 12.5884 232.469 13.4171 232.469 14.7322C232.469 16.4617 230.667 17.6327 227.442 17.6327ZM227.586 9.97609C228.848 9.97609 229.622 9.11134 229.622 7.83223C229.622 6.46304 228.812 5.56225 227.514 5.56225C226.217 5.56225 225.425 6.40899 225.425 7.72413C225.425 9.09332 226.253 9.97609 227.586 9.97609ZM227.388 16.4617C229.784 16.4617 230.865 15.8312 230.865 15.0205C230.865 14.498 230.433 14.1737 229.262 14.1737H225.785C224.668 14.1737 224.109 14.5881 224.109 15.1466C224.109 15.9213 225.046 16.4617 227.388 16.4617ZM180.601 36.4451C177.538 36.4451 174.962 33.8869 174.962 29.9595C174.962 26.0501 177.484 23.2216 181.159 23.2216C183.826 23.2216 186.132 25.0051 186.726 27.5814H184.835C184.366 25.5456 182.961 24.4827 181.015 24.4827C178.691 24.4827 176.854 26.4644 176.854 29.7252C176.854 33.0762 178.637 35.0579 181.105 35.0579C183.249 35.0579 184.871 33.3104 184.907 30.3738H186.726V36.1388H185.087V32.7879C184.564 35.0759 182.889 36.4451 180.601 36.4451ZM188.919 36.1388V23.5279H190.54V36.1388H188.919ZM195.857 36.4091C194.092 36.4091 192.867 35.0759 192.867 33.0762V26.7707H194.488V32.8059C194.488 34.1931 195.245 35.0218 196.614 35.0218C197.983 35.0218 198.92 33.8869 198.92 32.0132V26.7707H200.541V36.1388H198.992V34.085C198.542 35.4903 197.316 36.4091 195.857 36.4091ZM206.58 36.4091C204.202 36.4091 202.328 34.4994 202.328 31.5268C202.328 28.4642 204.256 26.5004 206.634 26.5004C208.508 26.5004 210.111 27.8516 210.417 29.9234H208.706C208.472 28.4281 207.643 27.6715 206.526 27.6715C205.121 27.6715 204.04 28.8785 204.04 31.3827C204.04 33.7968 205.211 35.0939 206.904 35.0939C208.219 35.0939 209.228 34.3012 209.571 32.8059H210.652C210.237 34.9678 208.652 36.4091 206.58 36.4091ZM215.845 36.4091C213.394 36.4091 211.539 34.4994 211.539 31.5088C211.539 28.4642 213.43 26.5004 215.953 26.5004C218.493 26.5004 220.258 28.4281 220.258 31.3827C220.258 34.4634 218.367 36.4091 215.845 36.4091ZM215.953 35.238C217.484 35.238 218.547 34.085 218.547 31.5088C218.547 29.0587 217.466 27.6715 215.845 27.6715C214.295 27.6715 213.25 28.8425 213.25 31.3827C213.25 33.8508 214.331 35.238 215.953 35.238ZM225.291 36.4091C222.949 36.4091 221.58 35.2741 221.238 33.1662H222.319C222.661 34.4453 223.688 35.1299 225.201 35.1299C226.372 35.1299 227.165 34.5534 227.165 33.7608C227.165 33.1482 226.769 32.7158 225.435 32.3735L224.12 32.0313C222.427 31.5989 221.652 30.6621 221.652 29.2929C221.652 27.7075 223.003 26.5004 224.877 26.5004C226.841 26.5004 228.156 27.6174 228.444 29.473H227.363C227.075 28.3921 226.174 27.7255 224.913 27.7255C223.904 27.7255 223.256 28.266 223.256 29.0407C223.256 29.6352 223.616 30.1576 224.769 30.4279L226.066 30.7341C228.066 31.2025 228.822 32.1033 228.822 33.5085C228.822 35.148 227.291 36.4091 225.291 36.4091ZM234.195 36.4091C231.727 36.4091 229.889 34.4994 229.889 31.5088C229.889 28.5542 231.835 26.5004 234.141 26.5004C236.429 26.5004 238.177 28.2119 238.177 31.4548H231.601C231.619 33.8688 232.754 35.0939 234.501 35.0939C235.853 35.0939 236.862 34.2652 237.24 32.8059H238.321C237.852 35.0939 236.357 36.4091 234.195 36.4091ZM234.105 27.6715C232.862 27.6715 231.943 28.5542 231.673 30.2837H236.321C236.177 28.6083 235.33 27.6715 234.105 27.6715Z" fill="white"/>
<path d="M271.242 10.6049L279.261 18.624L271.242 26.6431" stroke="#F8F6F2" stroke-width="2.45813"/>
<path d="M279.26 18.7174L262.228 18.7174" stroke="#F8F6F2" stroke-width="2.45813"/>
</svg>
